<?xml version="1.0" encoding="utf-8"?>
<svg viewBox="0 0 500 500" xmlns="http://www.w3.org/2000/svg">
  <path d="M 336.874 148.379 L 470.874 168.521 C 481.97 170.136 491.295 178.117 494.839 189.043 C 498.382 200.064 495.492 212.035 487.472 220.206 L 390.306 317.304 L 413.245 456.587 C 415.11 467.988 410.541 479.579 401.216 486.325 C 391.984 493.07 379.769 493.925 369.791 488.51 L 250.058 423.429 L 130.419 488.51 C 120.348 493.925 108.132 493.07 98.9 486.325 C 89.668 479.579 85.006 467.988 86.964 456.587 L 109.904 317.304 L 12.719 220.206 C 4.69 212.035 1.836 200.064 5.361 189.043 C 8.877 178.117 18.174 170.136 29.355 168.521 L 163.243 148.379 L 223.295 22.654 C 228.238 12.188 238.682 5.544 250.058 5.544 C 261.528 5.544 271.972 12.188 276.914 22.654 L 336.874 148.379 Z" style="fill: rgb(255, 196, 9);"/>
</svg>